<?xml version="1.0" encoding="utf-8"?>
<!-- Generator: Adobe Illustrator 23.0.1, SVG Export Plug-In . SVG Version: 6.00 Build 0)  -->
<svg version="1.1" id="Layer_1" xmlns="http://www.w3.org/2000/svg" xmlns:xlink="http://www.w3.org/1999/xlink" x="0px" y="0px"
	 viewBox="0 0 284.03 76" style="enable-background:new 0 0 284.03 76;" xml:space="preserve">
<style type="text/css">
	.st0{opacity:0.15;fill:#FFFFFF;}
	.st1{fill:#FFFFFF;}
</style>
<path class="st0" d="M275.77,45.7c-2.98-3.83-8.12-3.83-10.87-3.83c0,0-0.84,0-0.96,0c0.06-0.48,0.1-0.92,0.1-1.35
	c0.01-1.96,0.1-3.91,0.2-5.98c0.21-4.51,0.43-9.17-0.22-14c-1.04-7.61-7.46-8.42-10.21-8.76c-0.23-0.03-0.5-0.07-0.79-0.11
	c-1.21-0.18-2.87-0.42-4.54-0.42c-3.21,0-5.65,0.94-7.27,2.79c-0.46-0.46-0.97-0.89-1.53-1.29c-2.9-2.02-6.98-3.05-12.14-3.05
	c-0.25,0-0.49,0-0.73,0.01c-1.28,0.02-2.48,0.11-3.65,0.19c-1.23,0.08-2.38,0.16-3.49,0.16c-0.71,0-1.34-0.03-1.94-0.1
	c-0.33-0.04-0.91-0.15-1.51-0.27c-1.44-0.29-3.24-0.64-5.1-0.64c-2.59,0-4.77,0.71-6.49,2.1c-0.66,0.53-1.18,1.12-1.61,1.73
	c-0.14-0.08-0.26-0.16-0.41-0.24c-1.47-0.73-3.13-1.1-4.93-1.1c-2.42,0-4.61,0.63-6.55,1.19c-0.65,0.19-1.26,0.37-1.75,0.47
	c-5.48,1.18-7.73,4.21-9.91,7.15l-0.34,0.46c-0.56,0.76-1.19,1.52-1.92,2.39c-0.08,0.1-0.17,0.2-0.25,0.3
	c-0.21-0.36-0.4-0.7-0.58-1.02c-3.21-5.6-5.4-9.11-8.78-10.49c-1.67-0.68-3.77-1.06-5.93-1.06c-2.07,0-5.85,0.38-8.75,2.64
	c-2.64-3.25-7.35-3.91-10.52-4.36l-0.66-0.09c-0.77-0.12-1.52-0.17-2.23-0.17c-4.11,0-7.12,1.72-8.85,5.03
	c-3.28-4.33-8.68-4.48-11.7-4.57l-0.64-0.02c-0.28-0.01-0.54-0.01-0.79-0.01c-7.62,0-8.82,5.31-9.09,8.62
	c-2.76-2.59-6.39-4.31-10.77-5.03c-1.15-0.19-2.39-0.28-3.77-0.28c-1.05,0-2.04,0.05-3,0.1c-0.85,0.04-1.65,0.08-2.42,0.08
	c-0.55,0-1.02-0.02-1.44-0.07c-1.19-0.13-2.6-0.25-4.07-0.25c-2.3,0-4.38,0.31-6.56,0.98c-0.36,0.11-0.82,0.21-1.31,0.32
	c-0.49,0.11-1.09,0.24-1.75,0.43c-1.83-2.54-4.72-3.35-5.97-3.59c-1.45-0.27-3.46-0.44-5.24-0.44c-3.64,0-6.2,0.63-8.06,1.99
	c-3.45,2.51-4.36,6.86-5.1,10.35c-0.18,0.85-0.4,1.91-0.57,2.37c-1.37-1.95-3.1-3.71-5.49-4.58c-1.18-0.43-2.38-0.65-3.58-0.65
	c-2.11,0-4.08,0.63-5.88,1.89c-0.5-3.61-1.73-9.33-6.76-11.47c-1.13-0.48-2.43-0.71-3.98-0.71c-3.23,0-7.38,1.04-9.29,1.79
	c-4.83,1.87-6.34,6.12-4.48,12.65c0.15,0.52,0.29,1.01,0.36,1.39c1.69,8.65,2.76,16.33,3.35,24.16c0.03,0.46,0.05,0.96,0.07,1.53
	c0.11,3.49,0.32,9.99,6.24,13c1.63,0.83,3.46,1.25,5.44,1.25c2.71,0,5.67-0.84,8.13-2.3c2.48-1.47,4.47-3.63,6.26-5.89
	c1.33,2.61,3.2,5.45,6.37,6.86c1.44,0.64,3.14,0.96,5.07,0.96c2.68,0,5.81-0.64,8.16-1.68c4.51-1.98,5.96-5.48,7.05-8.1
	c0.14-0.34,0.29-0.7,0.45-1.06c0.25-0.56,0.53-1.11,0.83-1.66c0,0.02,0,0.04,0,0.05c-0.01,0.28-0.09,0.9-0.15,1.4
	c-0.4,3.12-1.35,10.42,5.31,12.96c1.14,0.44,2.41,0.65,3.89,0.65c2.18,0,4.43-0.47,6.25-0.84l0.11-0.02
	c0.48-0.1,0.92-0.19,1.29-0.25c3.11-0.51,5.54-1.69,7.24-3.52c1.62,2.02,4.31,4.36,9.23,4.36c0.15,0,0.31,0,0.46-0.01
	c6.41-0.16,10.89-2.19,12.97-5.87c0.51-0.91,0.97-2.08,1.11-3.48c5.58,4.73,13.33,4.74,16.2,4.74h0.03c0.52,0,1.02-0.01,1.52-0.02
	c5.96-0.15,10.59-2.06,14.23-5.89c0.18,3.4,0.82,5.43,2.42,6.94c1.84,1.73,5.91,2.57,12.44,2.57c1.51,0,2.46-0.09,3.28-0.32
	c5.03-1.38,6.34-5.87,6.85-8.93c0.99,0.28,2.07,0.42,3.26,0.42c0.53,0,1.1-0.03,1.73-0.07c2.97-0.22,5.27-0.96,7.2-2.34
	c-0.12,3.08,0.13,6.41,2.25,8.87c2.58,2.99,7.48,3.61,11.14,3.61c2.23,0,4.06-0.26,5.42-0.78c1.87-0.72,3.23-1.75,4.21-2.95
	c1.79,0.93,4.23,1.56,7.56,1.56c1.4,0,2.7-0.09,3.85-0.17l0.13-0.01c0.52-0.04,1-0.07,1.41-0.08c4.4-0.14,14.34-0.45,20.11-7.46
	c0.01,0.05,0.02,0.11,0.03,0.16c0.69,3.04,3.13,8.14,11.61,8.14c1.14,0,2.25-0.08,3.23-0.15l0.13-0.01
	c0.57-0.04,1.13-0.08,1.64-0.09l0.15,0c0.88,0,2.15,0.19,3.5,0.39c1.82,0.27,3.7,0.55,5.65,0.55c8.59,0,10.84-5.96,11.41-8.52
	C277.94,53.83,278.49,49.2,275.77,45.7z M107.92,42.88c0.06,0.86,0.15,1.72,0.28,2.58c-0.52-0.54-1.13-1.19-1.69-1.83
	C106.97,43.39,107.45,43.14,107.92,42.88z"/>
<g>
	<g>
		<path d="M271.81,43.73c-2.56-3.29-7.06-3.29-9.75-3.29l-0.57,0c-0.33,0-0.63,0-0.89-0.01c-0.13-0.01-0.28-0.01-0.43-0.01
			c-0.2,0-0.43,0.01-0.68,0.01c0.03-0.26,0.06-0.5,0.09-0.69c0.11-0.83,0.2-1.49,0.2-2.08c0.01-1.98,0.1-3.95,0.2-6.04
			c0.21-4.45,0.43-9.04-0.21-13.74c-0.89-6.53-6.15-7.19-8.98-7.54c-0.24-0.03-0.52-0.07-0.82-0.11c-1.17-0.17-2.77-0.4-4.34-0.4
			c-3.11,0-5.36,0.97-6.67,2.88c-0.18,0.26-0.33,0.53-0.47,0.81c-0.66-0.9-1.46-1.74-2.48-2.45c-2.66-1.85-6.47-2.79-11.33-2.79
			c-0.24,0-0.47,0-0.7,0.01c-1.25,0.02-2.43,0.1-3.58,0.18c-1.25,0.09-2.43,0.17-3.59,0.17c-0.76,0-1.45-0.04-2.09-0.11
			c-0.4-0.05-1-0.16-1.63-0.29c-1.38-0.27-3.1-0.62-4.82-0.62c-2.26,0-4.14,0.6-5.59,1.78c-0.95,0.77-1.6,1.67-2.03,2.64
			c-0.46-0.36-0.96-0.7-1.51-0.98c-1.27-0.63-2.72-0.95-4.3-0.95c-2.21,0-4.31,0.6-6.15,1.14c-0.69,0.2-1.33,0.38-1.85,0.5
			c-4.96,1.07-6.96,3.76-9.07,6.61l-0.34,0.46c-0.59,0.8-1.24,1.58-1.93,2.41c-0.38,0.46-0.77,0.92-1.14,1.39
			c-0.14,0.17-0.27,0.35-0.41,0.55c-0.57-0.95-1.16-1.98-1.64-2.82c-3.06-5.34-5.13-8.67-8.09-9.88c-1.5-0.61-3.41-0.95-5.39-0.95
			c-1.99,0-5.73,0.35-8.33,2.68c-0.26,0.23-0.49,0.47-0.7,0.72c-0.16-0.32-0.32-0.62-0.51-0.9c-2.19-3.16-6.85-3.81-9.93-4.24
			l-0.67-0.1c-0.7-0.1-1.38-0.16-2.02-0.16c-5.56,0-7.73,3.43-8.61,7.01c-0.18-0.49-0.39-0.97-0.65-1.44
			c-2.73-4.87-8.12-5.03-11.33-5.12l-0.64-0.02c-0.26-0.01-0.5-0.01-0.74-0.01c-7.35,0-7.61,5.56-7.75,8.54l-0.1,2.07
			c0,0.07-0.01,0.14-0.01,0.2c-2.69-3.85-6.85-6.35-12.23-7.24c-1.08-0.18-2.23-0.26-3.54-0.26c-1.01,0-1.99,0.05-2.93,0.1
			c-0.88,0.04-1.7,0.09-2.5,0.09c-0.6,0-1.12-0.02-1.59-0.07c-1.15-0.12-2.52-0.25-3.92-0.25c-2.15,0-4.1,0.29-6.14,0.91
			c-0.39,0.12-0.89,0.23-1.42,0.34c-0.75,0.16-1.7,0.37-2.69,0.73c-1.36-2.72-4.1-3.61-5.59-3.88c-1.38-0.26-3.28-0.42-4.98-0.42
			c-3.32,0-5.62,0.54-7.22,1.71c-3.01,2.19-3.86,6.24-4.55,9.49c-0.21,1.01-0.43,2.05-0.64,2.59c-0.35,0.92-0.68,1.82-0.99,2.7
			c-1.41-2.5-3.31-5.37-6.31-6.47c-1.02-0.37-2.06-0.56-3.09-0.56c-2.9,0-5.16,1.37-6.97,3.31c-0.02-0.28-0.05-0.56-0.08-0.83
			l-0.07-0.55c-0.4-3.33-1.15-9.52-6.07-11.61c-0.95-0.4-2.07-0.6-3.42-0.6c-3.02,0-7.03,1.01-8.78,1.69
			c-6.08,2.36-4.24,8.8-3.63,10.92c0.16,0.57,0.31,1.1,0.4,1.52c1.7,8.71,2.78,16.43,3.37,24.32c0.04,0.5,0.05,1.04,0.07,1.59
			c0.11,3.42,0.29,9.15,5.46,11.79c1.43,0.73,3.04,1.1,4.79,1.1c2.46,0,5.16-0.77,7.41-2.1c3.02-1.79,5.36-4.82,7.26-7.36
			c0.01,0.02,0.02,0.04,0.03,0.06c1.38,2.95,3.09,6.62,6.65,8.2c1.26,0.56,2.77,0.84,4.49,0.84c2.5,0,5.4-0.6,7.59-1.56
			c3.99-1.75,5.26-4.82,6.29-7.28c0.16-0.38,0.32-0.76,0.49-1.16c0.43-0.96,0.93-1.86,1.46-2.81c0.86-1.55,1.8-3.26,2.47-5.33
			c-0.04,0.62-0.07,1.24-0.11,1.87c-0.11,1.73-0.21,3.51-0.27,5.3c-0.01,0.35-0.09,0.95-0.17,1.53c-0.39,3.02-1.21,9.31,4.41,11.45
			c0.98,0.37,2.08,0.56,3.38,0.56c2.03,0,4.21-0.45,5.96-0.81c0.55-0.11,1.04-0.22,1.46-0.29c4.02-0.66,6.24-2.41,7.49-4.5
			c1.71,2.49,3.96,5.32,9.21,5.32c0.14,0,0.28,0,0.43-0.01c4.1-0.1,9.48-1.08,11.77-5.15c0.91-1.61,1.59-4.16,0.13-7.58
			c0.1,0.17,0.19,0.34,0.3,0.51c4.87,7.6,14.81,7.62,18.12,7.62h0.03c0.5,0,1-0.01,1.49-0.02c6.94-0.18,11.96-2.9,15.64-8.53
			c-0.1,6.17,0.39,8.41,2.02,9.95c1.54,1.45,5.4,2.18,11.47,2.18c1.38,0,2.22-0.08,2.91-0.27c4.99-1.37,5.66-6.45,6.02-9.18
			c0.02-0.12,0.03-0.24,0.05-0.35c1.27,0.66,2.72,0.97,4.41,0.97c0.5,0,1.04-0.02,1.62-0.07c4.11-0.31,6.75-1.64,8.97-4.56
			c-0.02,0.36-0.05,0.79-0.08,1.22c-0.26,3.41-0.58,7.65,1.75,10.36c2.34,2.72,7.31,3.12,10.07,3.12c2.06,0,3.71-0.23,4.91-0.69
			c2.09-0.8,3.44-2.06,4.3-3.51c1.67,1.2,4.18,2.03,7.98,2.03c1.35,0,2.63-0.09,3.76-0.16c0.59-0.04,1.13-0.08,1.59-0.09
			c4.46-0.14,14.89-0.46,20.01-8.24c0.32-0.49,0.61-0.98,0.88-1.48c0.19,1.17,0.4,2.34,0.67,3.51c0.73,3.21,3.1,7.04,10.23,7.04
			c1.08,0,2.13-0.07,3.13-0.14c0.64-0.04,1.26-0.09,1.85-0.11l0.17,0c0.98,0,2.3,0.2,3.7,0.4c1.77,0.26,3.6,0.53,5.45,0.53
			c7.29,0,9.41-4.64,10.03-7.41C273.65,51.01,274.18,46.77,271.81,43.73z M104.95,44.24c-0.91-0.95-2.56-2.67-3.49-3.91
			c0.39-0.21,0.82-0.42,1.17-0.6c1.23-0.61,2.59-1.31,3.76-2.29c0.07,3.68,0.5,7.44,2.07,10.91
			C107.67,47.09,106.41,45.76,104.95,44.24z M236.72,35.01c-0.01,0.52-0.02,1.03-0.02,1.56c-0.34-0.33-0.69-0.64-1.03-0.94
			C236.02,35.43,236.37,35.23,236.72,35.01z"/>
	</g>
</g>
<g>
	<g>
		<path class="st1" d="M200.36,22.67c-0.02-3.09-0.78-8.11-3.89-9.66c-2.77-1.38-6.7,0.42-9.51,1.03c-3.6,0.78-4.78,2.61-6.9,5.45
			c-1.01,1.35-2.11,2.61-3.16,3.92c-0.69,0.86-2.25,3.91-3.22,4.25c-2.86,1.01-8.05-13.58-11.84-15.13
			c-2.48-1.01-7.21-0.9-9.28,0.96c-2.1,1.88-1.66,5.74-1.88,8.27c-0.41,4.66-0.48,9.18-0.58,13.84c-0.08,3.55-1.52,6.84-1.6,10.36
			c-0.04,1.53-0.29,7.85,0.64,8.73c0.84,0.79,9.08,1.26,10.35,0.91c2.62-0.72,2.68-4.16,3.07-6.68c0.62-4.01-0.6-8.11-0.6-12.14
			c2.8-0.08,3.23,5.26,4.58,7.45c1.55,2.5,2.94,2.82,5.84,2.6c2.88-0.22,4.56-0.95,6.19-3.3c1.96-2.82,4.14-5.6,6.03-8.49
			c0.31,1.4,0.93,2.77,1.04,4.25c0.17,2.16,0.25,4.33,0.29,6.49c0.04,2.21-0.98,7.67,0.62,9.52c1.51,1.75,8.23,2,10.25,1.24
			c4.14-1.58,2.9-6.56,2.82-10.03c-0.09-4.18-1.04-8.14-0.44-12.31C199.72,30.45,200.38,26.47,200.36,22.67z M62.73,11.53
			c-2.07-0.39-7.19-0.71-8.92,0.55c-2.47,1.8-2.7,7.47-3.71,10.15c-1.37,3.64-2.63,7.36-3.63,11.12c-1.2-1.42-2.46-3.33-3.57-5.17
			c-1.25-2.06-3.03-6.3-5.54-7.22c-6.1-2.23-9.19,8.44-11.34,11.9c-2.28-3.17-1.09-9.74-1.56-13.45c-0.33-2.58-0.72-7.57-3.58-8.78
			c-1.9-0.81-7.21,0.44-9.01,1.14c-3.13,1.21-1.15,4.85-0.6,7.66c1.63,8.33,2.8,16.38,3.44,24.82c0.25,3.29-0.3,8.12,3.23,9.92
			c2.47,1.26,5.84,0.47,8.1-0.87c2.78-1.65,5.09-5.03,7.03-7.6c2.08-2.75,2.33-4.45,4.66-0.96c1.77,2.65,3.06,7.85,6.14,9.22
			c2.26,1.01,6.44,0.25,8.64-0.72c2.89-1.27,3.41-3.6,4.61-6.29c1.49-3.32,3.47-5.67,4.18-9.35c0.75-3.87,2.47-7.43,3.22-11.23
			c0.64-3.22,0.53-6.71,1.02-9.99C65.94,13.79,65.55,12.06,62.73,11.53z M96.09,36.82c1.27-2.14,5.4-2.99,7.2-4.84
			c1.91-1.96,2.13-4.15,1.65-6.74c-1.2-6.5-5.26-10.32-11.81-11.4c-3.43-0.57-6.86,0.24-10.31-0.12c-3.04-0.32-5.4-0.4-8.37,0.51
			c-2.44,0.75-5.72,0.74-6.31,3.32c-0.64,2.79,0.08,7.04,0.6,9.85c1.27,6.77,0.29,13.6,0.06,20.47c-0.09,2.57-1.65,7.66,1.51,8.87
			c2.14,0.82,6.43-0.41,8.59-0.77c6.53-1.07,5.24-5.55,5.68-10.86c1.85,2.59,3.88,5.02,5.66,7.65c1.87,2.78,2.93,4.05,6.36,3.97
			c5.09-0.13,11.01-1.83,7.59-7.84C102.64,46.15,94.32,39.79,96.09,36.82z M85.81,30.18c-3.93-0.01-0.91-1.65-2.22-3.5
			c-0.08-2.63-0.42-2.86,1.95-3.2c2-0.29,5.56-1.08,6.4,1.32C93.06,28.02,88.3,30.18,85.81,30.18z M232.81,12.7
			c-2.52-1.76-6.57-2.08-9.52-2.02c-3.34,0.06-6.48,0.6-9.82,0.21c-2.44-0.28-6.72-1.8-8.88-0.05c-2.43,1.97-0.46,6.94-0.17,9.45
			c0.44,3.89-0.64,7.61-0.64,11.48c-0.19,0-0.38,0-0.58,0c0,3.76,0.3,7.59,0.53,11.35c0.16,2.66-0.47,5.93,0.1,8.49
			c0.96,4.27,8.51,3.02,11.97,2.91c5.89-0.18,13.07-0.97,16.59-6.32c1.59-2.41,3.09-5.85,1.93-8.72c-0.83-2.05-5.32-4.22-5-6.31
			c0.31-2.04,4.6-3.28,5.93-4.82c2.06-2.39,1.77-5.45,1.16-8.36C235.87,17.35,235.16,14.34,232.81,12.7z M222.32,42.12
			c-0.36,1.52-2.47,3.91-4.17,2.25c-1.11-1.08,0.5-2.8-0.35-3.97c1.06-1.23-1-3.35,2.34-2.68C222.07,38.1,222.73,40.37,222.32,42.12
			z M223.32,25.27c-0.16,1.8-2.56,3.89-4.48,3.4c-1.96-0.5-1.39-2.48-1.37-4.27c1.13-1.64-1.35-1.98,1.63-2.43
			C221.14,21.65,223.51,23.11,223.32,25.27z M137.27,10.02c-7.22-1.08-6.08,6-6.48,11.16c-0.3,3.79-0.81,7.52-1.2,11.29
			c-0.2,1.91-0.19,7.03-2.71,7.74c-1.93,0.55-3.8-3.4-3.98-4.87c-0.44-3.56,0.55-7.23,0.59-10.79c0-3.2,1.04-8.35-0.57-11.24
			c-1.68-2.99-5.46-2.87-8.42-2.97c-4.05-0.14-3.92,1.08-4.11,4.97c-0.19,3.85-0.42,7.68-0.39,11.53
			c0.04,6.26-1.06,14.06,2.51,19.63c3.33,5.19,10.31,5.79,15.94,5.64c6.42-0.16,10.35-2.86,13.33-8.55
			c1.69-3.22,2.15-6.11,2.64-9.78c0.48-3.54,1.73-7.07,1.8-10.65c0.05-2.44,0.18-8.56-1.21-10.57
			C143.75,10.75,139.32,10.33,137.27,10.02z M267.69,44.47c-1.57-2.02-5.88-1.57-8.05-1.66c-1.21-0.05-4.22,0.39-5.05-0.92
			c-0.71-1.12,0.16-5,0.17-6.12c0.03-6.39,0.89-12.81,0.03-19.18c-0.42-3.11-2.23-3.52-5.29-3.9c-2.03-0.25-6.59-1.21-7.8,0.55
			c-1.13,1.64-0.36,6.82-0.48,8.8c-0.2,3.4-1.11,6.84-1,10.24c-0.12,6.54-0.04,12.93,1.42,19.34c1.13,4.94,6.86,3.6,10.94,3.48
			c5.15-0.14,13.8,3.66,15.31-3.15C268.34,49.99,269.09,46.27,267.69,44.47z"/>
	</g>
</g>
</svg>
